<?xml version="1.0" standalone="no"?>
<!DOCTYPE svg PUBLIC "-//W3C//DTD SVG 20010904//EN"
 "http://www.w3.org/TR/2001/REC-SVG-20010904/DTD/svg10.dtd">
<svg version="1.0" xmlns="http://www.w3.org/2000/svg"
 width="512.000000pt" height="512.000000pt" viewBox="0 0 512.000000 512.000000"
 preserveAspectRatio="xMidYMid meet">

<g transform="translate(0.000000,512.000000) scale(0.100000,-0.100000)"
fill="#000000" stroke="none">
<path d="M2345 4949 c-705 -73 -1333 -511 -1649 -1150 -420 -848 -212 -1867
509 -2496 l69 -61 -166 -249 c-195 -293 -198 -299 -198 -356 0 -113 117 -186
223 -139 43 19 57 37 226 291 100 149 183 271 185 271 2 0 55 -24 117 -54 207
-99 465 -173 667 -192 l72 -7 0 -108 0 -109 -137 0 c-76 0 -154 -5 -175 -10
-49 -14 -104 -76 -113 -129 -9 -53 25 -126 74 -158 l34 -23 474 0 c515 0 507
-1 552 56 52 66 47 155 -12 212 -46 44 -81 52 -239 52 l-138 0 0 109 0 108 70
7 c200 18 469 95 668 191 63 30 116 55 118 55 2 0 85 -122 185 -271 169 -254
183 -272 226 -291 106 -47 223 26 223 139 0 57 -3 63 -198 355 l-166 249 65
56 c409 356 663 844 718 1382 72 697 -235 1410 -792 1842 -421 327 -966 483
-1492 428z m400 -319 c397 -45 749 -209 1033 -483 157 -153 260 -292 356 -484
397 -789 137 -1756 -607 -2252 -209 -140 -506 -250 -744 -277 l-63 -7 0 219 1
219 92 44 c159 75 277 221 318 391 18 76 16 212 -5 285 -113 390 -558 557
-890 334 -164 -109 -259 -285 -260 -479 -1 -164 54 -300 169 -416 56 -57 88
-80 162 -115 l92 -44 1 -217 0 -218 -22 0 c-99 0 -354 67 -512 135 -215 92
-374 202 -556 384 -253 253 -415 563 -482 919 -32 168 -32 456 0 624 105 556
450 1012 957 1266 289 145 640 207 960 172z"/>
</g>
</svg>
